# xmcd
#
# Track frame offsets: 
#        150
#        14310
#        31670
#        46885
#        66285
#        87832
#        104440
#        121567
#        137217
#        156292
#        174247
#
# Disc length: 2576 seconds
#
# Revision: 0
# Processed by: cddbd v1.5PL3 Copyright (c) Steve Scherf et al.
# Submitted via: ExactAudioCopy v0.95a5
#
DISCID=810a0e0b
DTITLE=葉蒨文 - 蒨意
DYEAR=1997
DGENRE=
TTITLE0=麻煩女人
TTITLE1=活過
TTITLE2=蒨意
TTITLE3=紫色
TTITLE4=娛樂自己
TTITLE5=男與女
TTITLE6=自強不息
TTITLE7=難得是今晚
TTITLE8=小宇宙
TTITLE9=幸運兒
TTITLE10=感謝
EXTD=
EXTT0=
EXTT1=
EXTT2=
EXTT3=
EXTT4=
EXTT5=
EXTT6=
EXTT7=
EXTT8=
EXTT9=
EXTT10=
PLAYORDER=
